<svg xmlns="http://www.w3.org/2000/svg" version="1.1" xmlns:xlink="http://www.w3.org/1999/xlink" xmlns:svgjs="http://svgjs.dev/svgjs" width="1440" height="560" preserveAspectRatio="none" viewBox="0 0 1440 560"><g mask="url(&quot;#SvgjsMask1003&quot;)" fill="none"><rect width="1440" height="560" x="0" y="0" fill="url(&quot;#SvgjsLinearGradient1004&quot;)"></rect><path d="M1488 560L0 560 L0 313.21Q59.9 301.11, 72 361Q97.59 314.59, 144 340.18Q174 250.19, 264 280.19Q313.85 258.04, 336 307.89Q400.22 300.11, 408 364.32Q410.03 294.35, 480 296.38Q534.04 230.42, 600 284.46Q663.27 275.73, 672 339Q714.38 261.38, 792 303.77Q840.18 231.95, 912 280.14Q968.63 264.77, 984 321.41Q1061.61 279.01, 1104 356.62Q1150.45 331.07, 1176 377.53Q1180.07 309.6, 1248 313.67Q1296.73 242.4, 1368 291.14Q1422.98 226.12, 1488 281.1z" fill="#182f5d"></path><path d="M1464 560L0 560 L0 391.37Q33.71 353.08, 72 386.79Q153.04 347.83, 192 428.86Q195.11 359.97, 264 363.08Q329.92 309, 384 374.91Q439.02 357.93, 456 412.95Q503.82 388.77, 528 436.6Q557.64 394.25, 600 423.89Q615.89 367.78, 672 383.68Q726.04 317.72, 792 371.75Q858.86 366.61, 864 433.46Q917.4 366.87, 984 420.27Q1012.15 376.42, 1056 404.57Q1084.25 360.82, 1128 389.08Q1179.36 320.44, 1248 371.8Q1276.46 328.26, 1320 356.73Q1374.16 338.89, 1392 393.05Q1419.06 348.11, 1464 375.17z" fill="#25467d"></path><path d="M1512 560L0 560 L0 476.22Q42.2 446.43, 72 488.63Q80.89 425.52, 144 434.42Q173.26 391.68, 216 420.94Q274.45 407.39, 288 465.85Q334.01 439.87, 360 485.88Q431.59 437.47, 480 509.05Q490.94 447.99, 552 458.92Q577.45 412.37, 624 437.82Q705.25 399.06, 744 480.31Q792.26 408.57, 864 456.83Q918.27 391.1, 984 445.37Q1051.09 440.46, 1056 507.55Q1072.23 403.78, 1176 420.02Q1246.97 370.99, 1296 441.95Q1360.4 434.35, 1368 498.75Q1386.35 445.1, 1440 463.44Q1488.09 439.53, 1512 487.62z" fill="#356cb1"></path><path d="M1512 560L0 560 L0 572.65Q60.87 513.51, 120 574.38Q130.76 513.14, 192 523.91Q237 496.9, 264 541.9Q277.2 483.1, 336 496.29Q382.61 470.9, 408 517.51Q481.87 471.38, 528 545.24Q599.57 496.81, 648 568.38Q672.58 472.96, 768 497.54Q833.25 442.8, 888 508.05Q952.03 500.08, 960 564.11Q1003.8 487.91, 1080 531.72Q1110.05 489.77, 1152 519.82Q1245.34 493.16, 1272 586.51Q1309.83 504.34, 1392 542.17Q1463.31 493.48, 1512 564.79z" fill="white"></path></g><defs><mask id="SvgjsMask1003"><rect width="1440" height="560" fill="#ffffff"></rect></mask><linearGradient x1="15.28%" y1="-39.29%" x2="84.72%" y2="139.29%" gradientUnits="userSpaceOnUse" id="SvgjsLinearGradient1004"><stop stop-color="#0e2a47" offset="0"></stop><stop stop-color="#00459e" offset="1"></stop></linearGradient></defs></svg>