<svg xmlns="http://www.w3.org/2000/svg" version="1.1" xmlns:xlink="http://www.w3.org/1999/xlink" xmlns:svgjs="http://svgjs.dev/svgjs" width="1440" height="560" preserveAspectRatio="none" viewBox="0 0 1440 560"><g mask="url(&quot;#SvgjsMask1307&quot;)" fill="none"><rect width="1440" height="560" x="0" y="0" fill="url(&quot;#SvgjsLinearGradient1308&quot;)"></rect><path d="M8 140C6.87 134.09 0.34 136.78 0 130.82C-3.66 66.78 -33.81 31.6 0 0C36.19 -33.81 70 0 140 0C210 0 210 0 280 0C350 0 350 0 420 0C468.13 0 479.22 -19.49 516.25 0C549.22 17.35 525.36 63.78 560 73.68C617.24 90.03 638.8 77.71 700 52.5C728.24 40.87 711.41 10.3 738.89 0C781.41 -15.95 789.44 0 840 0C910 0 910 0 980 0C1038.61 0 1044.68 -11.86 1097.21 0C1114.68 3.94 1104.61 31.61 1120 31.61C1148.67 31.61 1150.83 7.79 1185.33 0C1220.83 -8.01 1222.66 0 1260 0C1330 0 1330 0 1400 0C1470 0 1470 0 1540 0C1540 0 1540 0 1540 0C1540 70 1540 70 1540 140C1540 210 1540 210 1540 280C1540 326.66 1567.8 359.15 1540 373.33C1497.8 394.86 1458.45 336.62 1400 351.43C1366.35 359.96 1361.93 381.67 1355.79 420C1345.22 485.96 1393.8 520.2 1366.57 560C1345.9 590.2 1313.28 560 1260 560C1190 560 1190 560 1120 560C1050 560 1050 560 980 560C925.28 560 875.21 587.98 870.55 560C863.55 517.98 964.16 484.94 956.67 420C948.88 352.44 886.47 295 840 295C803.48 295 803.97 355.13 790.7 420C776.87 487.63 813.93 516.59 785.81 560C768.58 586.59 742.9 560 700 560C630 560 630 560 560 560C490 560 490 560 420 560C350 560 350 560 280 560C210 560 210 560 140 560C70 560 36.52 593.48 0 560C-33.48 529.31 -24.54 474.62 0 431.67C15.46 404.62 74.99 446.66 80 420C89.25 370.82 46.99 351.85 28.52 280C10.99 211.85 21.13 208.68 8 140" stroke="rgba(0, 0, 0, 1)" stroke-width="2"></path><path d="M280 90C271.18 90 261.58 116.99 261.58 140C261.58 151.33 271.02 158.67 280 158.67C288.57 158.67 296.67 151.06 296.67 140C296.67 116.72 288.72 90 280 90" stroke="rgba(0, 0, 0, 1)" stroke-width="2"></path><path d="M1120 208.57C1087.56 208.57 1062.62 243.38 1062.62 280C1062.62 319.8 1087.07 361.4 1120 361.4C1159.51 361.4 1207.5 319.28 1207.5 280C1207.5 242.87 1160 208.57 1120 208.57" stroke="rgba(0, 0, 0, 1)" stroke-width="2"></path><path d="M58 140C40.29 100.81 15.83 111.65 0 73.44C-13.17 41.65 -24.09 12.63 0 0C45.91 -24.09 70 0 140 0C165.45 0 180.95 -18.46 190.91 0C218.72 51.54 188.46 77.62 215.53 140C233.01 180.28 248.58 205.33 280 205.33C309.98 205.33 331.13 179.25 338.33 140C349.97 76.58 293.99 40.63 317.69 0C334.82 -29.37 368.85 0 420 0C440.78 0 449.04 -14.31 461.56 0C510.29 55.69 499.86 71.65 542.5 140C549.08 150.56 548.16 157.82 560 157.82C626.91 157.82 663.35 109.35 700 140C736.39 170.44 695.89 211.05 706.09 280C716.6 351.05 743.1 351.13 741.41 420C740.05 475.57 732.81 485.56 700 528.89C679.8 555.56 669.51 552.42 635.38 560C599.51 567.97 597.69 560 560 560C490 560 490 560 420 560C350 560 350 560 280 560C210 560 210 560 140 560C70 560 50.15 579.85 0 560C-19.85 552.14 -19.28 517.8 0 504.58C50.72 469.8 69.79 483.54 140 464C209.79 444.58 211.88 447.6 280 426.67C283.47 425.6 283.18 423.09 283.18 420C283.18 418.05 282.05 417.69 280 416.59C210.46 379.19 202.4 388.66 140 343C109.07 320.37 107.76 315.72 93.33 280C66.76 214.22 86.96 204.09 58 140" stroke="rgba(0, 0, 0, 1)" stroke-width="2"></path><path d="M840 63.23C810.02 55.96 803.7 21.11 803.7 0C803.7 -10.51 821.85 0 840 0C910 0 910 0 980 0C997.9 0 1015.81 -8.36 1015.81 0C1015.81 13.03 1004.86 33.84 980 42.78C916.95 65.45 898.17 77.35 840 63.23" stroke="rgba(0, 0, 0, 1)" stroke-width="2"></path><path d="M1306.67 140C1283.87 76.37 1272.47 40.8 1299.67 0C1319.14 -29.2 1349.84 0 1400 0C1444.26 0 1455.6 -20.08 1488.53 0C1525.6 22.61 1523.38 40.15 1540 85.37C1549.11 110.15 1540 112.69 1540 140C1540 205.88 1573.91 237.85 1540 271.76C1503.91 307.85 1453.04 309.95 1400 280C1336.37 244.07 1334.04 216.37 1306.67 140" stroke="rgba(0, 0, 0, 1)" stroke-width="2"></path><path d="M933.33 280C933.33 257.74 959.85 237.22 980 237.22C995.81 237.22 1005.25 258.21 1005.25 280C1005.25 304.44 996.18 329.68 980 329.68C960.22 329.68 933.33 303.97 933.33 280" stroke="rgba(0, 0, 0, 1)" stroke-width="2"></path><path d="M1148.82 420C1205.99 371.01 1214.09 317.84 1260 317.84C1294.55 317.84 1297.57 365.77 1309.74 420C1324.74 486.85 1332.25 509.56 1314.33 560C1307.38 579.56 1287.16 560 1260 560C1190 560 1190 560 1120 560C1050 560 1050 560 980 560C957.09 560 934.18 572.02 934.18 560C934.18 538.86 947.63 514.97 980 493.68C1040.54 453.88 1051.08 467.9 1120 437.82C1135.49 431.06 1135.99 431 1148.82 420" stroke="rgba(0, 0, 0, 1)" stroke-width="2"></path><path d="M108 140C108 108.38 124.5 79.46 140 79.46C155.24 79.46 169.47 108.55 169.47 140C169.47 187.52 155.31 237.39 140 237.39C124.58 237.39 108 187.34 108 140" stroke="rgba(0, 0, 0, 1)" stroke-width="2"></path><path d="M35 0C35 4.21 12.35 16.07 0 16.07C-5.15 16.07 -5.51 2.53 0 0C11.99 -5.51 35 -3.83 35 0" stroke="rgba(0, 0, 0, 1)" stroke-width="2"></path><path d="M380 140C410.94 90.5 395.83 28 420 28C445.83 28 443.13 89.05 480 140C513.13 185.78 518.5 182.33 560 221.45C592.76 252.33 613.3 241.17 628.51 280C652.19 340.45 659.25 366.58 637.78 420C625 451.8 590.79 424.26 560 450.43C508.45 494.26 523.84 520.29 473.1 560C453.84 575.08 446.55 560 420 560C371.88 560 335.16 587.89 323.75 560C306.52 517.89 374.65 482.34 362.73 420C352.78 367.95 327.07 368.21 280 331.22C237.98 298.21 184.55 300.65 184.55 280C184.55 261.04 241.06 279.89 280 252C338.78 209.89 340.94 202.5 380 140" stroke="rgba(0, 0, 0, 1)" stroke-width="2"></path><path d="M1384.44 140C1366.89 71.77 1351.99 54.06 1358 0C1359.77 -15.94 1379 0 1400 0C1418.53 0 1431.84 -14.6 1437.06 0C1456.84 55.4 1463.31 81.35 1450 140C1444.78 163.02 1421.73 163.33 1400 163.33C1388.95 163.33 1387.89 153.43 1384.44 140" stroke="rgba(0, 0, 0, 1)" stroke-width="2"></path><path d="M1251.76 420C1256.48 417 1256.6 412.43 1260 412.43C1262.56 412.43 1263.62 415.82 1263.68 420C1264.67 489.6 1263.9 491.03 1262.09 560C1262.06 561.03 1261.05 560 1260 560C1190 560 1190 560 1120 560C1066.34 560 1012.67 573.69 1012.67 560C1012.67 544.41 1067.27 532.33 1120 501.45C1186.81 462.33 1186.48 461.51 1251.76 420" stroke="rgba(0, 0, 0, 1)" stroke-width="2"></path><path d="M28.97 560C28.97 548.04 84.34 514 140 514C197.36 514 255 548.07 255 560C255 571.07 197.5 560 140 560C84.49 560 28.97 571.04 28.97 560" stroke="rgba(0, 0, 0, 1)" stroke-width="2"></path></g><defs><mask id="SvgjsMask1307"><rect width="1440" height="560" fill="#ffffff"></rect></mask><linearGradient x1="50%" y1="100%" x2="50%" y2="0%" gradientUnits="userSpaceOnUse" id="SvgjsLinearGradient1308"><stop stop-color="#0e2a47" offset="0"></stop><stop stop-color="rgba(0, 255, 219, 1)" offset="1"></stop></linearGradient></defs></svg>